<?xml version="1.0" encoding="UTF-8" standalone="no"?>
<!-- Created with Inkscape (http://www.inkscape.org/) -->

<svg
   xmlns:dc="http://purl.org/dc/elements/1.1/"
   xmlns:cc="http://creativecommons.org/ns#"
   xmlns:rdf="http://www.w3.org/1999/02/22-rdf-syntax-ns#"
   xmlns:svg="http://www.w3.org/2000/svg"
   xmlns="http://www.w3.org/2000/svg"
   xmlns:sodipodi="http://sodipodi.sourceforge.net/DTD/sodipodi-0.dtd"
   xmlns:inkscape="http://www.inkscape.org/namespaces/inkscape"
   width="24mm"
   height="24mm"
   viewBox="0 0 24 24"
   version="1.1"
   id="svg8"
   inkscape:version="0.92.4 (5da689c313, 2019-01-14)"
   sodipodi:docname="icon.svg">
  <defs
     id="defs2" />
  <sodipodi:namedview
     id="base"
     pagecolor="#ffffff"
     bordercolor="#666666"
     borderopacity="1.0"
     inkscape:pageopacity="0.0"
     inkscape:pageshadow="2"
     inkscape:zoom="0.71"
     inkscape:cx="302.20525"
     inkscape:cy="454.40287"
     inkscape:document-units="mm"
     inkscape:current-layer="layer1"
     showgrid="false"
     inkscape:window-width="1278"
     inkscape:window-height="1018"
     inkscape:window-x="-7"
     inkscape:window-y="0"
     inkscape:window-maximized="0" />
  <metadata
     id="metadata5">
    <rdf:RDF>
      <cc:Work
         rdf:about="">
        <dc:format>image/svg+xml</dc:format>
        <dc:type
           rdf:resource="http://purl.org/dc/dcmitype/StillImage" />
        <dc:title></dc:title>
      </cc:Work>
    </rdf:RDF>
  </metadata>
  <g
     inkscape:label="Layer 1"
     inkscape:groupmode="layer"
     id="layer1"
     transform="translate(0,-273)">
    <path
       style="color:#38b2ac;font-style:normal;font-variant:normal;font-weight:normal;font-stretch:normal;font-size:medium;line-height:normal;font-family:sans-serif;font-variant-ligatures:normal;font-variant-position:normal;font-variant-caps:normal;font-variant-numeric:normal;font-variant-alternates:normal;font-feature-settings:normal;text-indent:0;text-align:start;text-decoration:none;text-decoration-line:none;text-decoration-style:solid;text-decoration-color:#38b2ac;letter-spacing:normal;word-spacing:normal;text-transform:none;writing-mode:lr-tb;direction:ltr;text-orientation:mixed;dominant-baseline:auto;baseline-shift:baseline;text-anchor:start;white-space:normal;shape-padding:0;clip-rule:nonzero;display:inline;overflow:visible;visibility:visible;opacity:1;isolation:auto;mix-blend-mode:normal;color-interpolation:sRGB;color-interpolation-filters:linearRGB;solid-color:#38b2ac;solid-opacity:1;vector-effect:none;fill:#38b2ac;fill-opacity:1;fill-rule:nonzero;stroke:none;stroke-width:0.4247857;stroke-linecap:butt;stroke-linejoin:miter;stroke-miterlimit:4;stroke-dasharray:none;stroke-dashoffset:0;stroke-opacity:1;color-rendering:auto;image-rendering:auto;shape-rendering:auto;text-rendering:auto;enable-background:accumulate"
       d="m 12.00067,297 c 3.35389,0 6.36572,-1.36999 8.52171,-3.54385 C 22.67838,291.28228 24,288.29592 24,285 24,281.70408 22.67838,278.71771 20.52238,276.54384 18.36639,274.36998 15.35456,272.99999 12.00067,273 8.64679,273 5.63496,274.36998 3.47896,276.54384 1.32296,278.71771 0,281.70408 0,285 c 0,3.29592 1.32296,6.28228 3.47896,8.45615 C 5.63496,295.63001 8.64679,297 12.00067,297 Z m 0.25787,-11.1833 c -3.12633,0 -6.24016,9.56662 -8.33085,7.4586 -2.0907,-2.10803 -3.39517,-5.03728 -3.39517,-8.2753 0,-3.23802 1.30447,-6.16728 3.39517,-8.2753 2.09069,-2.10803 4.94664,-3.38539 8.07298,-3.38539 3.12635,0 5.98094,1.27736 8.07164,3.38539 2.09069,2.10802 0.5585,1.42233 0.5585,4.66035 0,3.23802 0.2428,6.33159 -1.84789,8.43961 -2.0907,2.10802 -3.39803,-4.00796 -6.52438,-4.00796 z"
       id="path1396"
       inkscape:connector-curvature="0"
       sodipodi:nodetypes="sssscssssscscscscs"
       inkscape:export-xdpi="96"
       inkscape:export-ydpi="96" />
  </g>
</svg>
